<?xml version="1.0" encoding="utf-8"?>
<!-- Generator: Adobe Illustrator 16.0.0, SVG Export Plug-In . SVG Version: 6.00 Build 0)  -->
<!DOCTYPE svg PUBLIC "-//W3C//DTD SVG 1.1//EN" "http://www.w3.org/Graphics/SVG/1.1/DTD/svg11.dtd">
<svg version="1.1" id="Layer_1" xmlns="http://www.w3.org/2000/svg" xmlns:xlink="http://www.w3.org/1999/xlink" x="0px" y="0px"
	 width="300px" height="300px" viewBox="0 0 300 300" enable-background="new 0 0 300 300" xml:space="preserve">
<g>
	<path d="M150,20c34.724,0,67.37,13.522,91.924,38.076C266.478,82.63,280,115.276,280,150c0,34.724-13.522,67.369-38.076,91.924
		C217.369,266.478,184.724,280,150,280c-34.724,0-67.37-13.522-91.924-38.076C33.522,217.37,20,184.724,20,150
		c0-34.724,13.522-67.37,38.076-91.924C82.63,33.522,115.276,20,150,20 M150,0C67.157,0,0,67.157,0,150c0,82.842,67.158,150,150,150
		c82.842,0,150-67.158,150-150C300,67.157,232.842,0,150,0L150,0z"/>
</g>
</svg>
